<svg width="18" height="18" viewBox="0 0 18 18" fill="none" xmlns="http://www.w3.org/2000/svg">
<path fill-rule="evenodd" clip-rule="evenodd" d="M3 2.25C1.75736 2.25 0.75 3.25736 0.75 4.5V13.5C0.75 14.7426 1.75736 15.75 3 15.75H15C16.2426 15.75 17.25 14.7426 17.25 13.5V4.5C17.25 3.25736 16.2426 2.25 15 2.25H3ZM4.98016 5.42385C4.66195 5.15868 4.18903 5.20167 3.92385 5.51988C3.65868 5.83809 3.70167 6.31101 4.01988 6.57619L7.55961 9.52595C8.39401 10.2213 9.60603 10.2213 10.4404 9.52595L13.9802 6.57619C14.2984 6.31101 14.3414 5.83809 14.0762 5.51988C13.811 5.20167 13.3381 5.15868 13.0199 5.42385L9.48016 8.37362C9.20202 8.6054 8.79802 8.6054 8.51988 8.37362L4.98016 5.42385Z" fill="#777777"/>
</svg>
