<svg width="14" height="18" viewBox="0 0 14 18" fill="none" xmlns="http://www.w3.org/2000/svg">
<path fill-rule="evenodd" clip-rule="evenodd" d="M8.19279 16.7218C10.131 15.1344 13.75 11.6188 13.75 7.5C13.75 3.77208 10.7279 0.75 7 0.75C3.27208 0.75 0.25 3.77208 0.25 7.5C0.25 11.6188 3.86903 15.1344 5.80721 16.7218C6.50992 17.2973 7.49008 17.2973 8.19279 16.7218ZM7 9C8.24264 9 9.25 7.99264 9.25 6.75C9.25 5.50736 8.24264 4.5 7 4.5C5.75736 4.5 4.75 5.50736 4.75 6.75C4.75 7.99264 5.75736 9 7 9Z" fill="#777777"/>
</svg>
