<svg width="96" height="96" viewBox="0 0 96 96" fill="none" xmlns="http://www.w3.org/2000/svg">
<g clip-path="url(#clip0_2173_32946)">
<mask id="mask0_2173_32946" style="mask-type:luminance" maskUnits="userSpaceOnUse" x="0" y="0" width="96" height="96">
<path d="M0 7.62939e-06H96V96H0V7.62939e-06Z" fill="white"/>
</mask>
<g mask="url(#mask0_2173_32946)">
<path d="M47.8997 0.187489C27.694 0.190489 10.411 12.7026 3.37352 30.4014C3.35177 30.4562 3.33002 30.5109 3.30846 30.5657C-0.286856 39.7065 3.00977 50.1204 11.157 55.6072L38.6153 77.2378C50.4628 86.5706 66.7084 88.2846 80.0996 81.3467C82.8925 79.8997 85.2026 78.2561 86.6006 76.3446C92.4223 68.3844 95.8472 58.5604 95.8127 47.9347C95.7274 21.6261 74.2086 0.183739 47.8997 0.187489Z" fill="#00B7F0"/>
<path d="M58.6152 77.3417C58.6152 78.3823 59.459 79.2261 60.4996 79.2261C61.5404 79.2261 62.3842 78.3823 62.3842 77.3417C62.3842 76.3009 61.5404 75.4573 60.4996 75.4573C59.459 75.4573 58.6152 76.3009 58.6152 77.3417Z" fill="#0091C8"/>
<path d="M60.9611 58.0295C61.2963 58.3657 68.8229 65.9135 69.1644 66.174C72.1265 68.5014 76.6432 67.0995 77.6527 63.3221L82.3462 45.7599C86.2764 41.5213 89.9178 36.5507 92.8606 31.5058C89.1284 21.3945 82.082 12.89 73.0398 7.30611C69.2362 9.31555 65.4269 11.7542 61.9063 14.4214C58.592 16.9316 56.5415 18.8739 56.3278 19.0582L38.2265 23.8959C34.2159 24.9677 32.9028 29.9709 35.8153 32.8837L39.7901 36.8585L43.7021 40.7705C43.6955 42.0002 43.8258 43.1525 44.0908 44.3049L38.2949 50.1007C34.4731 49.8752 30.5759 51.2195 27.656 54.1395C26.2908 55.5049 24.0024 55.0425 23.2267 53.2745C23.1768 53.1615 23.1254 53.0494 23.0722 52.9382C23.0557 52.904 23.0379 52.872 23.0195 52.8409C22.2693 51.3144 21.1848 49.982 19.856 48.9455C18.5546 47.9308 18.0208 46.1859 18.5819 44.634C19.0211 43.4188 19.2226 42.0898 19.1289 40.7027C18.5287 31.8079 6.72613 28.2778 1.53501 36.0195C-6.36568 67.9727 40.4532 102.904 65.9377 92.5172C73.3121 89.5115 80.1341 84.54 85.4326 77.8451C88.9882 73.3524 82.7636 67.6965 78.6275 71.661C76.5716 73.6316 74.3386 75.4205 71.9551 77.003C70.9863 77.6464 69.7649 77.6488 68.7262 77.126C67.8695 76.695 66.8667 77.2817 66.7766 78.1963C66.6624 79.3603 65.9833 80.396 64.9143 80.8708C62.9861 81.7273 60.9892 82.4585 58.9344 83.057C57.7987 83.388 56.5835 83.0059 55.8318 82.0925C55.8275 82.0875 55.8232 82.0824 55.8191 82.0772C54.0247 79.9091 51.4541 78.3684 48.5941 77.8485C46.6681 77.4984 45.9043 75.1564 47.2886 73.772C50.2085 70.8521 51.5531 66.9549 51.3275 63.1331L56.9398 57.5207C58.2215 57.8602 59.5625 58.0369 60.9611 58.0295Z" fill="#0091C8"/>
<path d="M26.5983 47.3479C27.9415 47.3479 29.0305 46.2589 29.0305 44.9158C29.0305 43.5726 27.9415 42.4836 26.5983 42.4836C25.255 42.4836 24.166 43.5726 24.166 44.9158C24.166 46.2589 25.255 47.3479 26.5983 47.3479Z" fill="#0091C8"/>
<path d="M25.3821 37.0649C26.0538 37.0649 26.5983 36.5204 26.5983 35.8488C26.5983 35.1772 26.0538 34.6327 25.3821 34.6327C24.7105 34.6327 24.166 35.1772 24.166 35.8488C24.166 36.5204 24.7105 37.0649 25.3821 37.0649Z" fill="#0091C8"/>
<path d="M55.2668 83.2316C53.5365 83.5558 51.7858 82.809 50.7321 81.3988C48.8771 78.9161 46.1453 77.2446 43.1349 76.6974C41.2088 76.3472 40.4451 74.0053 41.8292 72.621C47.2508 67.1996 47.2508 58.4098 41.8292 52.9884C36.4078 47.5671 27.618 47.5671 22.1966 52.9884C20.8314 54.3536 18.5432 53.8913 17.7673 52.1235C17.0091 50.3961 15.8265 48.8976 14.3514 47.7593C13.0463 46.7524 12.5651 45.0281 13.1246 43.4775C13.5624 42.2636 13.7631 40.9367 13.6697 39.5516C13.3498 34.8133 9.53756 30.9729 4.8015 30.6233C4.287 30.5852 3.78056 30.5888 3.28444 30.6289C1.16475 36.0403 0 41.9308 0 48.0938C0 74.5517 21.4483 96 47.9063 96C54.2814 96 60.3643 94.7516 65.9278 92.4909C65.949 92.0441 65.9389 91.5908 65.8914 91.1327C65.3363 85.7732 60.2321 82.3011 55.2668 83.2316Z" fill="white"/>
<path d="M17.6128 51.787C17.02 50.5512 15.1281 51.395 15.6508 52.6619C15.8018 53.0279 16 53.3348 16.2585 53.5345C17.7338 54.6727 18.9163 56.1713 19.6744 57.8986C20.4503 59.6663 22.7387 60.1287 24.1039 58.7635C29.5253 53.3422 38.3151 53.3422 43.7365 58.7635C44.559 59.5863 45.2548 60.4872 45.8278 61.4414C45.5252 58.3557 44.1927 55.352 41.8292 52.9883C36.4078 47.567 27.618 47.567 22.1967 52.9883C20.8315 54.3535 18.5432 53.8912 17.7673 52.1234C17.7177 52.0102 17.6661 51.898 17.6128 51.787Z" fill="#F5F0F0"/>
<path d="M43.7356 78.3963C42.3513 79.7806 43.1152 82.1225 45.0414 82.4728C48.0753 83.0242 50.8267 84.7177 52.6822 87.2328C53.7138 88.631 55.4656 89.3268 57.1734 89.0068C59.3266 88.6035 61.5052 89.0287 63.3277 90.0765C64.4266 90.7083 65.6866 89.5809 65.1693 88.4236C63.5148 84.7237 59.4251 82.4698 55.3019 83.225C53.5758 83.5411 51.8167 82.8693 50.7748 81.4573C49.6758 79.9676 48.2621 78.7668 46.6618 77.9205C45.7008 77.4123 44.5171 77.6137 43.7491 78.3828L43.7356 78.3963Z" fill="#F5F0F0"/>
<path d="M4.17786 30.599C4.07605 30.5979 3.97461 30.5988 3.87355 30.6007C3.81355 30.602 3.75317 30.6027 3.69336 30.605C3.5563 30.6102 3.4198 30.6181 3.28405 30.629C2.39492 32.8991 1.67623 35.2542 1.13867 37.6775C2.75455 36.7351 4.6693 36.248 6.70836 36.3986C7.5388 36.4599 8.34055 36.6286 9.10011 36.8907C10.986 37.5412 12.4997 35.2109 11.1705 33.7353C11.1131 33.6725 11.0537 33.6116 10.9944 33.5502C10.9552 33.5094 10.9168 33.4677 10.8769 33.4276C10.8191 33.3699 10.7595 33.3138 10.7002 33.2576C10.6541 33.2135 10.6085 33.1689 10.5615 33.1259C10.505 33.074 10.4467 33.0237 10.389 32.9733C10.337 32.9277 10.2853 32.882 10.2324 32.8376C10.1769 32.7912 10.1201 32.7462 10.0635 32.7011C10.0057 32.6547 9.9478 32.6084 9.88892 32.5636C9.83473 32.522 9.77942 32.4819 9.72448 32.4417C9.66092 32.3954 9.59717 32.3491 9.53267 32.3045C9.47942 32.2676 9.42561 32.2317 9.3718 32.1959C9.30298 32.1502 9.23398 32.1052 9.16386 32.0611C9.11192 32.0285 9.05942 31.9966 9.00673 31.9649C8.93286 31.9203 8.85823 31.8766 8.78305 31.8342C8.73223 31.8056 8.68105 31.7771 8.62967 31.7493C8.55092 31.7067 8.47161 31.6653 8.39173 31.6248C8.34167 31.5993 8.29123 31.5742 8.24061 31.5496C8.15773 31.5095 8.07411 31.4709 7.98992 31.4332C7.94042 31.4109 7.89092 31.3886 7.84105 31.3672C7.75423 31.3299 7.66648 31.2946 7.57855 31.2599C7.52942 31.2406 7.48048 31.2209 7.43098 31.2024C7.34098 31.1686 7.25005 31.1371 7.15892 31.106C7.1098 31.0893 7.06086 31.0719 7.01136 31.0559C6.91892 31.0261 6.82536 30.9987 6.7318 30.9717C6.68211 30.9573 6.6328 30.9421 6.58292 30.9286C6.48805 30.9029 6.39223 30.8801 6.29642 30.8572C6.24636 30.8452 6.19705 30.8322 6.14661 30.8212C6.04892 30.7996 5.94992 30.7811 5.85092 30.7625C5.8018 30.7533 5.75305 30.7426 5.70373 30.7342C5.59855 30.7162 5.49223 30.7016 5.38611 30.6871C5.34223 30.6809 5.29892 30.6734 5.25486 30.668C5.10448 30.6498 4.95336 30.6344 4.80111 30.6234C4.64548 30.6117 4.4908 30.6056 4.33648 30.6014C4.28342 30.5999 4.23073 30.5996 4.17786 30.599Z" fill="#F5F0F0"/>
<path d="M77.737 41.4288L69.7897 33.4815L58.6152 53.018L63.2058 64.5821C66.131 67.5071 71.1256 66.167 72.1936 62.1708L77.737 41.4288Z" fill="#8757F3"/>
<path d="M63.6586 64.9888C65.4781 66.45 67.67 63.7815 65.9461 62.2084C65.8828 62.1506 65.8203 62.0908 65.7588 62.0293C64.4611 60.7316 64.7683 58.5636 66.3646 57.6581C66.404 57.6358 66.4434 57.6133 66.4828 57.5908C71.7547 54.5741 75.5698 49.5373 77.1382 43.669L77.7369 41.4291L69.7895 33.4817L53.5003 49.771L50.9473 52.324L59.2308 60.6075L63.2056 64.5823C63.3517 64.7284 63.503 64.8638 63.6586 64.9888Z" fill="#6A2BC2"/>
<path d="M53.5092 17.2014L61.4565 25.1488L40.5561 33.4817L30.3559 31.7325C27.4309 28.8075 28.771 23.8129 32.7672 22.7447L53.5092 17.2014Z" fill="#8757F3"/>
<path d="M29.9484 31.2796C28.4872 29.4601 31.1557 27.2682 32.7289 28.9921C32.7866 29.0555 32.8464 29.1181 32.9079 29.1796C34.2056 30.4773 36.3737 30.17 37.2793 28.5736C37.3014 28.5342 37.3239 28.495 37.3464 28.4557C40.3631 23.1835 45.3999 19.3685 51.2683 17.8L53.5082 17.2015L61.4557 25.1487L45.1665 41.438L42.6133 43.991L34.3297 35.7074L30.3549 31.7326C30.2089 31.5865 30.0735 31.4352 29.9484 31.2796Z" fill="#6A2BC2"/>
<path d="M75.1125 46.4537C61.6802 59.8861 50.8281 58.8983 43.5257 51.5957C36.223 44.2932 37.5148 37.5057 50.9471 24.0734C64.3795 10.6411 84.8659 -4.34976 92.1685 2.95299C99.471 10.2554 88.5448 33.0214 75.1125 46.4537Z" fill="#FEC502"/>
<path d="M75.8516 23.364C75.2602 22.3849 74.5659 21.5338 73.7954 20.8105C71.7541 18.894 73.6668 15.4933 76.3361 16.3386C77.993 16.8632 79.5309 17.782 80.8017 19.0527L81.0089 19.2598C85.1386 23.3895 92.2184 21.4791 93.6641 15.8207C94.7714 11.4872 95.0062 7.16985 93.1357 4.17379C88.7262 -2.8749 75.62 2.00854 68.2368 5.81029C68.0885 5.88679 67.9402 5.96366 67.7917 6.04147L67.7909 6.04185C60.9822 9.61053 54.0702 14.6063 48.6678 20.0087C35.2355 33.441 36.2232 44.293 43.526 51.5955C44.7286 52.7983 46.0282 53.8283 47.4191 54.6523C44.8066 50.2418 44.2801 44.907 46.9942 38.7859C48.8752 34.5435 54.5229 33.5359 57.7023 36.9165C57.7831 37.0026 57.8656 37.0875 57.9496 37.1717C62.9767 42.1988 71.5338 41.5442 75.6416 35.2084C77.9587 31.6348 78.0536 27.0096 75.8516 23.364Z" fill="#FFA50A"/>
<path d="M90.6796 24.0732C94.7708 15.1424 96.0625 6.84781 92.1676 2.95268C88.2725 -0.942254 82.5832 2.95493 73.6523 7.046L90.6796 24.0732Z" fill="#8757F3"/>
<path d="M87.6705 17.5534L85.0976 14.9807C82.8752 12.7583 83.8078 8.96588 86.8091 8.03269C88.2214 7.59357 89.5901 7.24969 90.8981 7.01176C92.781 6.66938 93.5434 4.34363 92.1983 2.98201C92.1887 2.97226 92.179 2.96251 92.1692 2.95276C88.2743 -0.942367 79.9796 0.349507 71.0488 4.44057L87.6705 21.0623C88.6393 20.0934 88.6393 18.5224 87.6705 17.5534Z" fill="#6A2BC2"/>
<path d="M75.9005 35.3279C71.4524 39.7758 64.241 39.7758 59.7929 35.3279C55.3451 30.8798 55.3451 23.6684 59.7929 19.2203C64.241 14.7725 71.4524 14.7725 75.9005 19.2203C80.3484 23.6684 80.3484 30.8798 75.9005 35.3279Z" fill="white"/>
<path d="M26.3353 77.6683L21.654 78.2694C20.7506 78.3853 19.9815 77.6163 20.0976 76.713L20.6987 72.0317C21.2991 67.3548 23.4334 63.0093 26.7675 59.6752C30.0604 56.3825 35.3989 56.3825 38.6918 59.6752C41.9844 62.9681 41.9844 68.3066 38.6918 71.5993C35.3576 74.9334 31.0119 77.0677 26.3353 77.6683Z" fill="#F5F0F0"/>
<path d="M26.9788 73.4757L20.5117 74.3059C20.5117 74.3059 25.4452 60.5398 28.7793 57.2057C28.7793 57.2057 33.9864 52.3219 37.1437 53.9007C37.9344 54.2959 38.6758 54.8232 39.335 55.4826C42.6277 58.7753 42.6279 64.114 39.3352 67.4067C36.0013 70.7408 31.6554 72.8751 26.9788 73.4757Z" fill="#FEC502"/>
<path d="M73.5421 32.969C70.397 36.1142 65.2976 36.1142 62.1524 32.969C59.0071 29.8239 60.4091 26.5367 63.5542 23.3914C66.3063 20.6394 69.1526 18.4834 72.2787 20.5474C72.7254 20.8423 73.1489 21.1862 73.5421 21.5794C76.6872 24.7245 76.6872 29.8239 73.5421 32.969Z" fill="#00B7F0"/>
<path d="M41.2097 57.3579L32.8184 48.9665L38.631 43.1538L47.0224 51.5452L41.2097 57.3579Z" fill="#6A2BC2"/>
<path d="M45.8509 61.9988L39.4754 55.6232C37.8702 54.018 37.8702 51.4155 39.4754 49.8105C41.0804 48.2053 43.6829 48.2053 45.2881 49.8105L51.6636 56.1861L45.8509 61.9988Z" fill="#8757F3"/>
<path d="M68.0451 31.7375C68.7145 31.0679 68.7145 29.9825 68.0451 29.3129L65.6039 26.8719C65.0671 26.3351 65.038 25.4632 65.5566 24.9089C65.5715 24.8932 65.5861 24.8774 65.6009 24.8619C66.1431 24.2917 67.0583 24.3024 67.6148 24.8589L68.3534 25.5974C68.999 26.2432 70.0501 26.3197 70.7361 25.7171C71.4878 25.0567 71.5156 23.9107 70.8194 23.2143C70.5106 22.9057 70.7226 22.3813 71.1591 22.3664C71.1747 22.3659 71.1905 22.3653 71.2062 22.3649C72.3717 22.3319 72.7591 20.7826 71.7361 20.2231C68.8028 18.6191 65.0135 18.9463 62.4123 21.3301C59.009 24.449 58.9221 29.7393 62.1518 32.969C62.3733 33.1903 62.6041 33.3958 62.8433 33.5855C63.3119 33.9571 63.9728 33.4994 63.7865 32.9313C63.7808 32.9144 63.7754 32.8976 63.77 32.8809C63.4096 31.7587 64.7871 30.9041 65.6206 31.7375C66.2901 32.4071 67.3756 32.4071 68.0451 31.7375Z" fill="#0091C8"/>
<path d="M27.411 55.4826C24.0768 58.8167 21.9425 63.1622 21.342 67.8388L20.5117 74.3059C21.8126 74.1388 22.8375 73.1194 23.0139 71.8197C23.1253 70.999 23.2717 70.1434 23.5562 69.0788C23.925 67.698 25.6464 67.2293 26.6568 68.2399L27.6603 69.2434C28.4555 70.0384 29.7444 70.0384 30.5396 69.2434C31.3346 68.4482 31.3346 67.1593 30.5396 66.3643L27.7959 63.6205C27.0999 62.9247 27.0446 61.8145 27.668 61.0528L27.6819 61.036C28.3937 60.1665 29.7002 60.1015 30.4948 60.8961L31.4366 61.8379C32.2316 62.6329 33.5207 62.6329 34.3158 61.8379C35.1108 61.0429 35.1108 59.7538 34.3158 58.9588C33.6013 58.2443 34.1072 57.0128 35.1176 57.0214C35.1508 57.0216 35.1842 57.0222 35.2173 57.0227C37.3712 57.0666 37.907 54.0439 35.8494 53.406C33.0517 52.5388 29.8127 53.0807 27.411 55.4826Z" fill="#FFA50A"/>
<path d="M56.9232 76.1903C56.9232 77.2311 56.0795 78.0747 55.0389 78.0747C53.998 78.0747 53.1543 77.2311 53.1543 76.1903C53.1543 75.1497 53.998 74.306 55.0389 74.306C56.0795 74.306 56.9232 75.1497 56.9232 76.1903Z" fill="white"/>
<path d="M61.3105 76.9531C61.3105 76.3336 61.8129 75.8315 62.4322 75.8315C63.0519 75.8315 63.554 76.3336 63.554 76.9531C63.554 77.5726 63.0519 78.0747 62.4322 78.0747C61.8129 78.0747 61.3105 77.5726 61.3105 76.9531Z" fill="white"/>
<path d="M23.5713 43.7645C23.5713 45.1078 22.4823 46.1968 21.1391 46.1968C19.7958 46.1968 18.707 45.1078 18.707 43.7645C18.707 42.4213 19.7958 41.3323 21.1391 41.3323C22.4823 41.3323 23.5713 42.4213 23.5713 43.7645Z" fill="white"/>
<path d="M21.1393 34.6976C21.1393 35.3693 20.5948 35.9136 19.9232 35.9136C19.2515 35.9136 18.707 35.3693 18.707 34.6976C18.707 34.026 19.2515 33.4815 19.9232 33.4815C20.5948 33.4815 21.1393 34.026 21.1393 34.6976Z" fill="white"/>
</g>
</g>
<defs>
<clipPath id="clip0_2173_32946">
<rect width="96" height="96" fill="white"/>
</clipPath>
</defs>
</svg>
