<svg width="96" height="90" viewBox="0 0 96 90" fill="none" xmlns="http://www.w3.org/2000/svg">
<g clip-path="url(#clip0_2173_32909)">
<path d="M84.4148 49.8425L94.5004 48.326C95.232 48.216 95.8814 48.8049 95.8427 49.545L94.5016 74.7142C94.4617 75.4519 93.7567 75.9695 93.0408 75.7844L83.0205 73.1929" fill="#7E7BFF"/>
<path d="M61.756 77.0834L36.7113 85.3756C31.8221 86.3419 26.8168 86.3213 22.1283 84.7601C21.1911 84.4783 20.3386 84.3622 19.4328 83.9716L1.72258 76.1982C0.0489006 75.4666 -0.370728 73.3467 0.894202 72.008L14.3283 58.1554C15.0176 57.4492 15.7614 57.0163 16.5208 56.3995C20.2624 53.1719 24.9182 51.4221 29.8074 50.4546L45.2889 46.8908L54.7831 53.2916L51.2737 61.7604L59.0121 68.8481L61.7572 57.8701L66.2171 45.4989L85.647 45.3296C85.4075 45.6089 84.5537 46.8461 84.5537 46.8461L82.8801 78.2613" fill="#E3E6EF"/>
<path d="M20.5601 82.5289C19.9179 82.5289 19.3447 82.0754 19.2153 81.4224L15.7156 59.9572C15.5693 59.2147 16.0518 58.494 16.7955 58.3465C17.5429 58.1965 18.2612 58.6838 18.4075 59.4264L21.9072 80.8915C22.0536 81.634 21.571 82.3547 20.8273 82.5023C20.7378 82.5204 20.6483 82.5289 20.5601 82.5289Z" fill="#C0C2C9"/>
<path d="M50.4186 30.7852C48.9033 30.7852 48 29.5578 48 28.0401V3.33887C48 1.8224 48.9033 0.59375 50.4186 0.59375C51.9339 0.59375 52.8372 1.82119 52.8372 3.33887V28.0401C52.8372 29.5578 51.9339 30.7852 50.4186 30.7852Z" fill="#BDBDBD"/>
<path d="M61.3024 30.7852C59.7871 30.7852 58.8838 29.5577 58.8838 28.0401V17.062C58.8838 15.5455 59.7871 14.3169 61.3024 14.3169C62.8176 14.3169 63.721 15.5443 63.721 17.062V28.0401C63.721 29.5577 62.8176 30.7852 61.3024 30.7852Z" fill="#BDBDBD"/>
<path d="M39.5348 30.7852C38.0196 30.7852 37.1162 29.5577 37.1162 28.0401V17.062C37.1162 15.5455 38.0196 14.3169 39.5348 14.3169C41.0501 14.3169 41.9534 15.5443 41.9534 17.062V28.0401C41.9534 29.5577 41.0501 30.7852 39.5348 30.7852Z" fill="#BDBDBD"/>
<path d="M64.1064 76.9805C63.1487 76.8704 62.4763 77.9007 62.9636 78.7327L67.3909 86.3042C67.5771 86.6222 67.9012 86.8338 68.2664 86.8762L87.2718 89.059C88.2296 89.169 88.902 88.1387 88.4146 87.3067L83.321 76.9272" fill="#6945C2"/>
<path d="M66.2144 45.442C65.2518 45.4928 64.6447 44.4237 65.1804 43.6232L70.0624 36.3359C70.2668 36.03 70.6042 35.8389 70.9718 35.8195L90.0751 34.8025C91.0377 34.7517 91.6448 35.8208 91.1091 36.6213L85.3903 46.6694" fill="#6945C2"/>
<path d="M38.3596 73.8339C42.1097 73.8339 45.1498 70.7938 45.1498 67.0436C45.1498 63.2935 42.1097 60.2534 38.3596 60.2534C34.6094 60.2534 31.5693 63.2935 31.5693 67.0436C31.5693 70.7938 34.6094 73.8339 38.3596 73.8339Z" fill="#90D8F2"/>
<path d="M38.3504 75.2078C34.4697 75.2078 31.1055 72.4384 30.3521 68.6255C29.9288 66.4899 30.3641 64.3132 31.5771 62.5016C32.79 60.6901 34.6378 59.459 36.7759 59.0382C41.2612 58.1372 45.5119 61.1315 46.3668 65.4632C46.7901 67.5988 46.3548 69.7756 45.1418 71.5871C43.9289 73.3986 42.0811 74.6297 39.943 75.0505C39.4085 75.157 38.8752 75.2078 38.3504 75.2078ZM38.3685 61.6237C38.019 61.6237 37.6647 61.6587 37.3092 61.7277C35.8882 62.0094 34.6632 62.8269 33.8578 64.0278C33.0524 65.231 32.7634 66.6737 33.044 68.0934C33.6123 70.9667 36.4385 72.9476 39.4097 72.3574C40.8307 72.0757 42.0557 71.2582 42.8611 70.0573C43.6665 68.8541 43.9555 67.4114 43.6749 65.9917C43.1743 63.463 40.9431 61.6237 38.3685 61.6237Z" fill="#147BB6"/>
</g>
<defs>
<clipPath id="clip0_2173_32909">
<rect width="96" height="89.3023" fill="white"/>
</clipPath>
</defs>
</svg>
